PathFileType	4	(X/Y/Z)	./resultDataOpenSim/trcMotMarkerGrf/sub10/qtm-05-01.trc
DataRate	CameraRate	NumFrames	NumMarkers	Units	OrigDataRate	OrigDataStartFrame	OrigNumFrames
250.000000	250.000000	10	24	m	250.000000	187	496
Frame#	Time	L.Toe.Tip			R.Toe.Tip			L.Ankle.Lat			R.Ankle.Lat			L.Ankle.Med			R.Ankle.Med			L.Heel			R.Heel			L.Knee.Lat			R.Knee.Lat			L.Knee.Med			R.Knee.Med			L.Thigh.Upper			R.Thigh.Upper			L.ASIS			R.ASIS			V.Sacral			L.Acromium			R.Acromium			C7			L.Elbow			R.Elbow			L.Wrist.Lat			R.Wrist.Lat
		X1	Y1	Z1	X2	Y2	Z2	X3	Y3	Z3	X4	Y4	Z4	X5	Y5	Z5	X6	Y6	Z6	X7	Y7	Z7	X8	Y8	Z8	X9	Y9	Z9	X10	Y10	Z10	X11	Y11	Z11	X12	Y12	Z12	X13	Y13	Z13	X14	Y14	Z14	X15	Y15	Z15	X16	Y16	Z16	X17	Y17	Z17	X18	Y18	Z18	X19	Y19	Z19	X20	Y20	Z20	X21	Y21	Z21	X22	Y22	Z22	X23	Y23	Z23	X24	Y24	Z24

187	0.744	0.073177737	-0.057798731	-0.085407453	-0.76427777	0.037256782	0.018582131	-0.058345838	-0.033563639	-0.13739197	-0.82328462	0.16553383	0.04719432	-0.065480702	-0.012654343	-0.05381897	-0.77422215	0.14946835	-0.022130248	-0.12791165	-0.062221296	-0.10346643	-0.85835238	0.18436202	-0.013377877	-0.018930851	0.35360773	-0.14970819	-0.48107468	0.36440917	0.10093133	-0.02931071	0.32881071	-0.030233056	-0.43602783	0.33193427	-0.013593542	-0.140242	0.7191827	-0.21665304	-0.32207753	0.7213709	0.13884605	-0.11948908	0.81590741	-0.12280195	-0.20424734	0.79635434	0.1042772	-0.34948016	0.83078892	-0.085099804	-0.24521864	1.2771669	-0.20468634	-0.27887382	1.2917865	0.11280751	-0.33919129	1.3039339	-0.062090295	-0.42866427	1.0133255	-0.30106368	-0.31352335	0.93946405	0.19683621	-0.42107678	0.79264454	-0.40199434	-0.081301615	0.8408614	0.20892344
188	0.748	0.07347766	-0.057845705	-0.085330084	-0.76201291	0.037542543	0.01871159	-0.057294036	-0.033116228	-0.13652849	-0.81466225	0.16939959	0.047806535	-0.064923242	-0.012742721	-0.053174153	-0.76519317	0.15130816	-0.02072795	-0.12778551	-0.061665466	-0.10279031	-0.84747852	0.19018833	-0.013166452	-0.012386991	0.35256543	-0.14866662	-0.46944522	0.36158346	0.10274108	-0.025237452	0.32766271	-0.029675252	-0.42288563	0.32639769	-0.011318244	-0.13225114	0.71948736	-0.21696689	-0.31329212	0.71836879	0.13912068	-0.11249108	0.81475126	-0.12349196	-0.19590116	0.79423568	0.10289144	-0.34255219	0.8294168	-0.084889403	-0.23801092	1.2756784	-0.20563253	-0.27108784	1.290647	0.11202879	-0.33188216	1.3027402	-0.062972098	-0.4199431	1.0108656	-0.30177394	-0.30798079	0.93849338	0.19539643	-0.41260875	0.79045498	-0.40323488	-0.076772732	0.83675361	0.20944623
189	0.752	0.073776465	-0.057892728	-0.085277317	-0.75917163	0.038359094	0.018796016	-0.056333168	-0.032767784	-0.13582521	-0.80567498	0.17328415	0.048517017	-0.064295765	-0.012552517	-0.052677375	-0.75595532	0.15340879	-0.019408089	-0.12758605	-0.06111583	-0.10225432	-0.83645507	0.19616294	-0.012551521	-0.0059984647	0.35177607	-0.14777659	-0.45770612	0.35865209	0.10463182	-0.020885227	0.32694993	-0.0291455	-0.40939683	0.32064946	-0.0090398073	-0.12444717	0.71998975	-0.21717353	-0.30464058	0.71539012	0.13939947	-0.10560568	0.81375529	-0.12414782	-0.18774432	0.79215405	0.10149294	-0.33575356	0.82816379	-0.084666599	-0.23079023	1.2743147	-0.206525	-0.26330507	1.2895958	0.11129505	-0.32462387	1.3016632	-0.063825497	-0.41116093	1.0084424	-0.30240645	-0.30238269	0.93762059	0.19388073	-0.40394542	0.78831038	-0.40437815	-0.072328057	0.83268484	0.20990582
190	0.756	0.074027314	-0.057945379	-0.085251507	-0.75586234	0.039745344	0.018885144	-0.055599412	-0.032585869	-0.13534702	-0.79620127	0.1772818	0.049317092	-0.063715522	-0.012218611	-0.052366746	-0.74654769	0.15579601	-0.018169796	-0.12740143	-0.060632883	-0.10192131	-0.82543709	0.20225585	-0.011401947	0.00021727542	0.35123719	-0.14703511	-0.44585779	0.35562247	0.10660001	-0.016317758	0.32663235	-0.028601596	-0.39578719	0.31491937	-0.0066847531	-0.11684958	0.72057402	-0.21731127	-0.29610816	0.71244837	0.13966184	-0.098792686	0.81292462	-0.12477501	-0.1797792	0.79012668	0.10010051	-0.32906036	0.82700488	-0.084464725	-0.22356316	1.2730845	-0.20737476	-0.25552964	1.2886427	0.11060286	-0.31741406	1.3007131	-0.064632804	-0.40232166	1.0060767	-0.30293997	-0.29652161	0.93678702	0.19217298	-0.39505181	0.7862341	-0.4054374	-0.068014152	0.82866536	0.21030994
191	0.76	0.07420456	-0.058004204	-0.085258911	-0.75225265	0.041613253	0.019050588	-0.055113571	-0.032516363	-0.13509386	-0.78614419	0.18142338	0.050196092	-0.063227856	-0.011885505	-0.05222382	-0.73691911	0.15839571	-0.016994971	-0.12727803	-0.060221344	-0.10178724	-0.81417082	0.20834986	-0.0098975174	0.0062284476	0.35089745	-0.14641969	-0.43389206	0.35250569	0.10862269	-0.011650344	0.32663656	-0.028076061	-0.38213329	0.30933452	-0.0042151486	-0.10945981	0.72113141	-0.21741482	-0.28768292	0.7095438	0.13988429	-0.092025473	0.81224605	-0.12537795	-0.17200769	0.78819836	0.098741134	-0.32246983	0.82590689	-0.084294149	-0.21633405	1.271998	-0.20818796	-0.24777518	1.2877938	0.10994928	-0.31024738	1.2999018	-0.065380028	-0.3934345	1.003785	-0.3033767	-0.29044107	0.93601325	0.19032486	-0.38588981	0.78423848	-0.40643335	-0.063930818	0.82468463	0.21069255
192	0.764	0.074307199	-0.058066749	-0.085298678	-0.74848266	0.043831834	0.0193402	-0.054825812	-0.032493113	-0.13503234	-0.77556295	0.18566733	0.051115182	-0.062838081	-0.011637364	-0.052199464	-0.72692367	0.16106124	-0.015849474	-0.12721983	-0.059871329	-0.10179843	-0.8021663	0.21429939	-0.0084486707	0.011997715	0.35065759	-0.14590595	-0.42179786	0.34933907	0.11066676	-0.0069656455	0.32686048	-0.027610732	-0.36836172	0.3039456	-0.0016713358	-0.10228103	0.72159036	-0.21750994	-0.27937815	0.70670343	0.14006522	-0.085297846	0.81169759	-0.12596039	-0.16443448	0.78642371	0.097452625	-0.31598485	0.82485964	-0.084139151	-0.20909789	1.2710599	-0.2089544	-0.24006052	1.2870507	0.1093359	-0.30311929	1.2992352	-0.066063887	-0.3845164	1.0015797	-0.30371233	-0.28433722	0.93537035	0.18845197	-0.3764551	0.78231679	-0.40736665	-0.060140159	0.82073549	0.2110712
193	0.768	0.074352088	-0.058129422	-0.085360563	-0.74459927	0.046314831	0.019772565	-0.054648205	-0.032486695	-0.1351004	-0.76460589	0.18993436	0.052018561	-0.062538977	-0.011483565	-0.052247207	-0.71640582	0.16362615	-0.014700026	-0.12720403	-0.059577459	-0.10188806	-0.78919051	0.22003027	-0.0072970572	0.01748585	0.35039753	-0.14548154	-0.40955829	0.34619134	0.11269772	-0.0022615296	0.32718436	-0.027187094	-0.3543681	0.29881964	0.00085618686	-0.095325715	0.72192119	-0.2176143	-0.27124278	0.70400039	0.14024055	-0.07862632	0.81125842	-0.12652753	-0.15706496	0.78486086	0.096278794	-0.30957012	0.82385498	-0.084019615	-0.20186026	1.2702713	-0.20965063	-0.23239572	1.2864177	0.10876004	-0.29602662	1.2987124	-0.066689313	-0.37559534	0.99947192	-0.3039236	-0.27835085	0.93490923	0.18662631	-0.36678805	0.78045939	-0.40820983	-0.056599783	0.81682826	0.21143206
194	0.772	0.074360047	-0.058188615	-0.085431208	-0.74052656	0.049049396	0.020367726	-0.054492331	-0.032502134	-0.13522248	-0.753316	0.19415512	0.052889424	-0.062304762	-0.011388948	-0.05233404	-0.70531196	0.16600372	-0.01354367	-0.12720496	-0.059330142	-0.10200695	-0.77540751	0.22555468	-0.0063614003	0.02264934	0.35001841	-0.14515372	-0.39715657	0.34313788	0.11467345	0.0024982437	0.32749768	-0.026765774	-0.34013361	0.29407825	0.0032885808	-0.088607505	0.72212656	-0.21774115	-0.26334558	0.70151579	0.14046416	-0.072048134	0.81091733	-0.12708682	-0.14990139	0.78357595	0.095255171	-0.30316936	0.82288216	-0.083987014	-0.19464345	1.2696377	-0.21026256	-0.2247743	1.2859052	0.10820445	-0.28896875	1.2983347	-0.067262722	-0.36670523	0.99747118	-0.30399698	-0.27250255	0.93464432	0.18485588	-0.35693089	0.77867403	-0.40893098	-0.053221748	0.81298377	0.2117505
195	0.776	0.074347758	-0.058241819	-0.085500373	-0.73609505	0.052065424	0.021173082	-0.05430594	-0.03255055	-0.13533542	-0.7415641	0.19830553	0.053786442	-0.062094936	-0.011311495	-0.0524334	-0.69374962	0.16825741	-0.012422592	-0.12721053	-0.059112211	-0.10213022	-0.7610778	0.23088376	-0.005480797	0.027444935	0.34947774	-0.14494857	-0.38459439	0.34024306	0.11654095	0.0072907885	0.32771607	-0.026375578	-0.32574767	0.28987393	0.0055832402	-0.082138399	0.72223149	-0.21790206	-0.25573877	0.69930022	0.14076375	-0.06560572	0.81068045	-0.12764569	-0.14294977	0.78264036	0.094400604	-0.29679716	0.82198423	-0.084010711	-0.18746476	1.2691675	-0.21080526	-0.21718662	1.2855245	0.10764836	-0.28194709	1.2981088	-0.067789112	-0.35785656	0.99558283	-0.30396569	-0.26674414	0.9345692	0.18310973	-0.34688593	0.77698251	-0.40951882	-0.049968843	0.8092215	0.21201328
196	0.78	0.074327692	-0.058287613	-0.085562182	-0.73112949	0.055377452	0.022257774	-0.054083605	-0.032624393	-0.13540352	-0.7291561	0.20241735	0.054800194	-0.061873423	-0.011225604	-0.05252128	-0.68188952	0.17052248	-0.011401815	-0.12722224	-0.058906101	-0.102243	-0.74636606	0.23599145	-0.0046110981	0.031840387	0.34879571	-0.14489953	-0.37190063	0.3375645	0.11825352	0.012034451	0.32778123	-0.026102162	-0.31134291	0.28633618	0.007690397	-0.075933329	0.7222761	-0.21810648	-0.24842431	0.69738845	0.14111072	-0.059322453	0.81057142	-0.12820117	-0.13622513	0.78211607	0.093721606	-0.290529	0.82125928	-0.083962858	-0.18032479	1.2688638	-0.21130746	-0.20964413	1.2852835	0.10708612	-0.27496113	1.2980401	-0.068274892	-0.34900666	0.99380714	-0.30390441	-0.2610079	0.93466681	0.18133762	-0.33662754	0.77540521	-0.40998209	-0.046860559	0.80555782	0.21221939
